<svg xmlns="http://www.w3.org/2000/svg" width="256" height="256"><path fill-opacity=".016" d="M0 128.004v128.004l128.25-.254 128.25-.254.254-127.75L257.008 0H0v128.004m.485.496c0 70.4.119 99.053.265 63.672.146-35.38.146-92.98 0-128C.604 29.153.485 58.1.485 128.5" fill="#1976D2" fill-rule="evenodd"/><path fill-opacity=".195" d="m44.239 98 .261 83H0v9.008l128.25-.254 128.25-.254.295-4.5.296-4.5-22.546.287-22.545.286V98.037C212 34.403 211.721 15 210.807 15c-.656 0-19.517 4.716-41.914 10.479l-40.722 10.479-40.836-10.474c-22.459-5.762-41.403-10.477-42.096-10.48-1.008-.003-1.209 16.723-1 82.996M50 101.121V181h78V41.247l-10.25-2.603c-5.638-1.432-23.187-5.933-39-10.002L50 21.242v79.879m141.357-6.13c-1.179.476-2.866 1.898-3.75 3.16-4.43 6.325 1.952 14.293 9.377 11.705 3.559-1.241 5.016-3.503 5.016-7.79 0-2.909-2.894-7.066-4.918-7.066-.505 0-1.518-.197-2.25-.437-.733-.241-2.296-.048-3.475.428M.286 185.5c.008 2.75.202 3.756.432 2.236.229-1.52.223-3.77-.014-5-.237-1.23-.425.014-.418 2.764m10.987 17.927c-1.91.862-3.464 1.073-3.809.515-.32-.518-2.13-.942-4.023-.942H0v38h10V213.321l2.547-1.16c3.326-1.516 4.003-1.468 5.882.41 1.272 1.273 1.571 4.126 1.571 15V241h10v-13.443c0-12.759.113-13.523 2.223-15 2.806-1.966 4.228-1.963 6.206.014 1.272 1.273 1.571 4.126 1.571 15V241h10l-.004-14.75c-.004-16.775-1.111-20.146-7.486-22.81-4.587-1.917-7.351-1.815-11.759.432-3.183 1.623-3.934 1.688-5.645.49-3.036-2.127-10.131-2.607-13.833-.935M53 221.412V241l11.75-.015c7.333-.009 12.654-.479 14.154-1.25 7.639-3.926 8.495-15.043 1.448-18.814-1.891-1.012-2.117-1.473-1.021-2.086.774-.433 1.956-2.115 2.628-3.737 1.502-3.624-.015-7.348-4.279-10.508-2.37-1.757-4.562-2.144-13.75-2.428L53 201.823v19.589m39.603-.409C88.421 231.454 85 240.229 85 240.503c0 .273 2.385.497 5.299.497 5.149 0 5.335-.1 6.565-3.5l1.265-3.5H114.63l1.669 3.5c1.606 3.37 1.872 3.5 7.135 3.5h5.467l-5.024-11.25a2905.004 2905.004 0 0 1-8.618-19.5l-3.594-8.25h-11.46l-7.602 19.003m39.11-18.382c-.392.392-.713 9.187-.713 19.546V241h30v-8l-9.75.001-9.75.001V202.5l-4.537-.296c-2.496-.163-4.858.025-5.25.417m32 0c-.392.392-.713 9.187-.713 19.546V241h11.043l-.271-19.25-.272-19.25-4.537-.296c-2.496-.163-4.858.025-5.25.417M176 221.5V241h10l.118-10.75c.066-5.912.032-11.187-.074-11.722-.329-1.665 3.385 2.175 12.079 12.491l8.377 9.939 4.772.021 4.771.021-.271-19.25-.272-19.25-5.217-.301-5.217-.301-.283 11.11-.283 11.11-9.772-11.059c-9.7-10.978-9.804-11.059-14.25-11.059H176v19.5m57.502-18.422c-9.982 2.482-16.101 10.684-15.288 20.493.534 6.438 4.125 11.599 10.339 14.859 5.353 2.807 18.238 2.92 23.697.206l3.75-1.864V220h-15v4c0 3.6.25 4 2.5 4 3.637 0 3.429 3.587-.25 4.3-9.713 1.885-17.061-5.283-14.224-13.877 2.249-6.815 11.71-9.412 21.474-5.894 5.498 1.981 5.5 1.98 5.5-2.58 0-3.686-.316-4.183-3.506-5.516-4.618-1.929-13.992-2.598-18.992-1.355M63 213.44c0 3.491.078 3.56 4.031 3.56 7.008 0 6.659-6.211-.382-6.81-3.573-.304-3.649-.237-3.649 3.25m40.318 6.561L101.136 226h4.932c2.713 0 4.932-.185 4.932-.411 0-1.225-4.372-11.589-4.889-11.588-.336 0-1.593 2.7-2.793 6M63 229v4h4.965c4.08 0 5.173-.389 6.133-2.183.995-1.859.835-2.453-1.076-4-1.309-1.06-3.864-1.817-6.133-1.817-3.871 0-3.889.019-3.889 4" fill="#1976D2" fill-rule="evenodd"/><path fill-opacity=".297" d="M45 97.933V181H0v9.008l128.25-.254 128.25-.254.295-4.5.296-4.5-23.046.286-23.045.286V97.929c0-66.086-.256-83.051-1.25-82.696-.687.246-19.345 5.088-41.461 10.76l-40.21 10.313-39.79-10.2c-21.884-5.61-40.577-10.435-41.539-10.721-1.657-.492-1.75 3.904-1.75 82.548M49 101v80h79V41.155l-3.25-1.024C120.87 38.908 50.561 21 49.64 21c-.352 0-.64 36-.64 80m141.5-5.845c-3.027 1.655-4.5 3.932-4.5 6.954 0 4.087.945 5.811 4.072 7.428 3.977 2.057 6.392 1.828 9.572-.907 7.291-6.272-.723-18.081-9.144-13.475M.286 185.5c.008 2.75.202 3.756.432 2.236.229-1.52.223-3.77-.014-5-.237-1.23-.425.014-.418 2.764M0 222v19h9v-13.443c0-12.759.113-13.523 2.223-15 2.653-1.859 5.921-2.013 7.577-.357.817.817 1.2 5.6 1.2 15V241h10v-13.965c0-12.783.164-14.052 1.934-15 1.064-.569 2.809-1.035 3.878-1.035 3.871 0 4.671 2.644 5.036 16.652L41.196 241H50v-14.099c0-15.757-1.117-19.876-6.085-22.445-3.667-1.896-10.238-1.857-13.99.083-2.679 1.385-3.195 1.385-5.173 0-2.894-2.027-11.63-2.013-14.537.023-2.022 1.416-2.286 1.416-2.83 0-.38-.991-1.839-1.562-3.992-1.562H0v19m53 0v19h11.032C79.941 241 85 238.26 85 229.646c0-3.163-.66-4.532-3.452-7.166-3.399-3.205-3.422-3.284-1.5-5.023 2.124-1.923 2.563-6.446.922-9.512-1.999-3.737-6.256-4.945-17.42-4.945H53v19m40.007-1.25c-3.99 9.762-7.472 18.313-7.738 19-.348.9.949 1.25 4.632 1.25 5.034 0 5.141-.063 6.716-4l1.6-4h16.566l1.6 4c1.569 3.921 1.7 4 6.609 4 2.754 0 5.008-.273 5.008-.607 0-.333-3.669-8.883-8.154-19L111.692 203h-11.43l-7.255 17.75M131 222v19h30v-7h-20v-31h-10v19m33 0v19h9v-38h-9v19m12 0v19h9.938l.281-11.976.281-11.977 10.275 11.977c9.927 11.569 10.411 11.976 14.25 11.976H215v-38h-10.125l.313 11.002c.171 6.051.087 10.973-.188 10.937-.275-.036-4.734-4.987-9.908-11.002L185.683 203H176v19m53.459-17.12c-14.148 6.426-15.063 24.977-1.622 32.879 3.964 2.33 5.788 2.741 12.163 2.741 5.5 0 8.567-.533 11.5-2l4-2 .292-7.75.292-7.75h-15.211l.314 3.25c.261 2.711.727 3.253 2.813 3.265 3.446.022 4.098 3.958.802 4.841-9.046 2.423-16.802-2.506-16.802-10.679 0-3.076.702-4.579 3.4-7.277 3.183-3.183 3.823-3.4 10.032-3.4 3.648 0 8.193.652 10.1 1.449l3.468 1.449v-4.291c0-4.114-.159-4.338-3.866-5.449-5.954-1.784-16.967-1.417-21.675.722M63 214c0 3.627.239 4 2.566 4 3.848 0 6.434-1.78 6.434-4.428 0-2.598-1.658-3.572-6.082-3.572-2.738 0-2.918.247-2.918 4m40.241 5.25c-1.233 3.438-2.242 6.475-2.243 6.75 0 .275 2.431.348 5.403.163l5.405-.337-2.653-6.405c-1.459-3.523-2.882-6.409-3.162-6.413-.28-.005-1.517 2.805-2.75 6.242M63 229.5v4.5h3.777c4.429 0 8.223-2.317 8.223-5.022 0-2.513-2.921-3.978-7.934-3.978H63v4.5" fill="#1976D2" fill-rule="evenodd"/><path fill-opacity=".486" d="M45 98.686V182H0v8.008l128.25-.254 128.25-.254.296-4 .296-4-23.046.286-23.046.286V98.567c0-69.807-.222-83.419-1.354-82.985-.744.286-19.387 5.157-41.428 10.825l-40.074 10.305-41.572-10.67L45 15.372v83.314m4 2.425V182h79V40.411l-8.75-2.177c-4.812-1.197-22.588-5.74-39.5-10.094L49 20.223v80.888m139.356-4.741c-2.099 1.806-2.756 3.267-2.756 6.13 0 7.14 9.053 11.267 14.199 6.472 8.492-7.911-2.642-20.172-11.443-12.602M.272 186c0 2.475.195 3.488.434 2.25.238-1.238.238-3.262 0-4.5-.239-1.238-.434-.225-.434 2.25m10.274 18.679c-2.057 1.113-3.069 1.253-3.333.46-.209-.627-1.917-1.139-3.796-1.139H0v37h9v-13.345C9 212.989 9.749 211 15.272 211c4.735 0 5.728 2.987 5.728 17.223V241h8v-13.345c0-11.658.231-13.554 1.829-15 2.31-2.09 6.551-2.132 8.6-.084 1.272 1.273 1.571 4.126 1.571 15V241h9l-.024-12.25c-.028-14.372-.942-19.17-4.289-22.517-3.233-3.234-10.108-4.076-14.861-1.821-3.131 1.486-3.8 1.497-7.109.114-4.644-1.94-9.406-1.885-13.171.153M53 221.914V241h9.757c11.009 0 15.533-.984 18.851-4.102 4.729-4.442 3.832-12.585-1.702-15.447l-2.812-1.454 2.453-2.453c3.25-3.25 3.098-6.79-.463-10.778l-2.915-3.266-11.585-.336L53 202.828v19.086m39.845.071L85.19 241h4.753c4.617 0 4.799-.115 6.325-4l1.571-4h17.322l1.571 4c1.53 3.896 1.697 4 6.388 4 4.175 0 4.728-.233 4.151-1.75-.367-.963-4.088-9.4-8.268-18.75l-7.601-17-5.451-.265-5.451-.265-7.655 19.015M132 222v19h28v-7h-19v-31h-9v19m32 0v19h9v-38h-9v19m13 0v19h8.938l.281-12.194.281-12.194 10.5 12.193c9.951 11.557 10.696 12.194 14.25 12.195H215v-38H206.063l-.281 11.657-.282 11.658-10-11.591c-9.779-11.335-10.094-11.592-14.25-11.657L177 203v19m54.885-17.62c-8.912 3.185-12.885 8.695-12.885 17.873 0 4.014.599 6.341 2.274 8.825 6.315 9.372 20.524 12.215 31.828 6.369 2.805-1.45 2.898-1.738 2.898-8.973V221h-14v3c0 2.554.382 3 2.566 3 2.21 0 2.523.382 2.25 2.75-.285 2.48-.75 2.781-4.736 3.066-5.932.424-8.27-.279-11.423-3.432-2.136-2.136-2.657-3.596-2.657-7.443 0-3.992.501-5.288 3.018-7.806 4.597-4.596 12.932-5.161 22.422-1.52 1.444.554 1.649.077 1.378-3.205-.292-3.541-.646-3.956-4.318-5.057-5.301-1.589-14.128-1.577-18.615.027m-169.218 5.287c-.367.366-.667 2.391-.667 4.5 0 3.794.04 3.833 3.929 3.833 3.705 0 7.071-1.938 7.071-4.071 0-3.184-8.08-6.516-10.333-4.262m40.124 9.833-2.697 7.5h5.953c3.274 0 5.956-.338 5.961-.75.012-1.251-5.471-14.243-6.014-14.247-.278-.002-1.719 3.372-3.203 7.497M62 229.5v4.5h4.566c5.697 0 8.434-1.407 8.434-4.335 0-3.496-1.93-4.665-7.7-4.665H62v4.5" fill="#1976D2" fill-rule="evenodd"/></svg>